# xmcd
#
# Track frame offsets:
#	150
#	84557
#	112616
#	148664
#	191291
#
# Disc length: 2916 seconds
#
# Revision: 0
# Processed by: cddbd v1.5.2PL0 Copyright (c) Steve Scherf et al.
# Submitted via: audiograbber 1.83.01
#
DISCID=340b6205
DTITLE=Grateful Dead - 94-04-07 Miami Arena, Miami FL
DYEAR=1900
DGENRE=
TTITLE0=Space
TTITLE1=The Last Time
TTITLE2=Stella Blue
TTITLE3=Sugar Magnolia
TTITLE4=Liberty
EXTD=
EXTT0=
EXTT1=
EXTT2=
EXTT3=
EXTT4=
PLAYORDER=
